<svg xmlns="http://www.w3.org/2000/svg" style="display: none;">
  <symbol id="arrow-down-01" viewBox="0 0 24 24">
    <defs id="arrow-down-01_defs1"/> <path style="fill:#000000;stroke-linecap:round;stroke-linejoin:round" d="M 6.1308594,8.1347656 A 0.875,0.875 0 0 0 5.4804687,8.2949219 0.875,0.875 0 0 0 5.2949219,9.5195313 c 0,0 1.1200891,1.5215937 2.4511718,3.0546877 0.6655414,0.766546 1.3831869,1.537404 2.0703126,2.144531 C 10.503532,15.325877 11.051323,15.875 12,15.875 c 0.948683,0 1.496476,-0.549131 2.183594,-1.15625 0.687118,-0.607119 1.404765,-1.377992 2.070312,-2.144531 C 17.585,11.04114 18.705078,9.5195312 18.705078,9.5195313 A 0.875,0.875 0 0 0 18.519531,8.2949219 0.875,0.875 0 0 0 17.294922,8.4804688 c 0,0 -1.08965,1.4784158 -2.363281,2.9453122 -0.636816,0.733449 -1.32014,1.462598 -1.90625,1.980469 C 12.439281,13.924121 11.841867,14.125 12,14.125 c 0.158077,0 -0.439279,-0.200877 -1.025391,-0.71875 C 10.388498,12.888377 9.705168,12.159235 9.0683594,11.425781 7.7947422,9.9588747 6.7050781,8.4804687 6.7050781,8.4804688 A 0.875,0.875 0 0 0 6.1308594,8.1347656 Z" id="arrow-down-01_path1"/>
  </symbol>
  <symbol id="arrow-left-01" viewBox="0 0 24 24">
    <defs id="arrow-left-01_defs1"/> <path style="fill:#000000;stroke-linecap:round;stroke-linejoin:round" d="m 15.130859,5.1347656 a 0.875,0.875 0 0 0 -0.65039,0.1601563 c 0,0 -1.521598,1.1200786 -3.054688,2.4511718 C 10.659237,8.4116404 9.8883745,9.1292886 9.28125,9.8164063 8.6741255,10.503524 8.125006,11.051316 8.125,12 c -6e-6,0.948681 0.5491235,1.496468 1.15625,2.183594 0.6071265,0.687126 1.377984,1.404771 2.144531,2.070312 1.533095,1.331083 3.054688,2.451172 3.054688,2.451172 a 0.875,0.875 0 0 0 1.224609,-0.185547 0.875,0.875 0 0 0 -0.185547,-1.224609 c 0,0 -1.478405,-1.089664 -2.945312,-2.363281 C 11.840765,14.294832 11.111623,13.611502 10.59375,13.025391 10.075877,12.439279 9.875001,11.841919 9.875,12 c -10e-7,0.158134 0.200874,-0.43928 0.71875,-1.025391 0.517876,-0.58611 1.247015,-1.2694338 1.980469,-1.9062496 1.466908,-1.2736318 2.945312,-2.3632813 2.945312,-2.3632813 A 0.875,0.875 0 0 0 15.705078,5.4804687 0.875,0.875 0 0 0 15.130859,5.1347656 Z" id="arrow-left-01_path1"/>
  </symbol>
  <symbol id="arrow-right-01" viewBox="0 0 24 24">
    <defs id="arrow-right-01_defs1"/> <path style="fill:#000000;stroke-linecap:round;stroke-linejoin:round" d="M 8.8691406,5.1347656 A 0.875,0.875 0 0 0 8.2949219,5.4804687 0.875,0.875 0 0 0 8.4804688,6.7050781 c 0,0 1.4784158,1.0896498 2.9453122,2.3632813 0.733449,0.6368157 1.462598,1.3201396 1.980469,1.9062496 0.517871,0.58611 0.71875,1.183524 0.71875,1.025391 0,-0.158077 -0.200877,0.439279 -0.71875,1.025391 -0.517873,0.586111 -1.247015,1.269441 -1.980469,1.90625 -1.4669063,1.273617 -2.9453122,2.363281 -2.9453122,2.363281 a 0.875,0.875 0 0 0 -0.1855469,1.224609 0.875,0.875 0 0 0 1.2246094,0.185547 c 0,0 1.5215937,-1.120089 3.0546877,-2.451172 0.766546,-0.665541 1.537404,-1.383187 2.144531,-2.070312 C 15.325877,13.496468 15.875,12.948677 15.875,12 15.875,11.051317 15.325869,10.503524 14.71875,9.8164063 14.111631,9.1292881 13.340758,8.4116405 12.574219,7.7460937 11.04114,6.4150002 9.5195312,5.2949219 9.5195313,5.2949219 A 0.875,0.875 0 0 0 8.8691406,5.1347656 Z" id="arrow-right-01_path1"/>
  </symbol>
  <symbol id="arrow-up-01" viewBox="0 0 24 24">
    <defs id="arrow-up-01_defs1"/> <path style="fill:#000000;stroke-linecap:round;stroke-linejoin:round" d="m 12,8.125 c -0.948691,-6e-6 -1.496482,0.5491249 -2.1835937,1.15625 -0.6871114,0.6071251 -1.4047757,1.377985 -2.0703126,2.144531 -1.3310736,1.533093 -2.4511718,3.054688 -2.4511718,3.054688 a 0.875,0.875 0 0 0 0.1855468,1.224609 0.875,0.875 0 0 0 1.2246094,-0.185547 c 0,0 1.0896699,-1.478403 2.3632813,-2.945312 C 9.705165,11.840764 10.388508,11.111624 10.974609,10.59375 11.560711,10.075876 12.158141,9.875001 12,9.875 c -0.158134,-10e-7 0.43928,0.200874 1.025391,0.71875 0.58611,0.517876 1.269434,1.247015 1.90625,1.980469 1.273631,1.466908 2.363281,2.945312 2.363281,2.945312 a 0.875,0.875 0 0 0 1.224609,0.185547 0.875,0.875 0 0 0 0.185547,-1.224609 c 0,0 -1.120078,-1.521598 -2.451172,-3.054688 C 15.58836,10.659237 14.870711,9.8883745 14.183594,9.28125 13.496476,8.6741255 12.948684,8.125006 12,8.125 Z" id="arrow-up-01_path1"/>
  </symbol>
  <symbol id="favorite-remove" viewBox="0 0 24 24">
    <defs id="favorite-remove_defs2"/> <path style="fill:#000000;stroke-linecap:round;stroke-linejoin:round" d="m 7,2.625 c -3.3633892,0 -5.875,2.7734266 -5.875,6.0703125 0,2.5457815 1.5468433,4.9606945 3.3613281,7.0468755 1.8144849,2.08618 3.9555786,3.845378 5.4003907,4.925781 1.2514252,0.935735 2.9751372,0.935735 4.2265622,0 a 0.875,0.875 0 0 0 0.177735,-1.22461 0.875,0.875 0 0 0 -1.226563,-0.175781 c -0.647375,0.484065 -1.481531,0.484065 -2.128906,0 C 9.5590789,18.238281 7.4921858,16.531684 5.8066406,14.59375 4.1210955,12.655816 2.875,10.489891 2.875,8.6953125 2.875,6.2545784 4.5739092,4.375 7,4.375 c 1.3055556,0 2.4839791,0.3472604 4.380859,2.2441406 a 0.8750875,0.8750875 0 0 0 1.238282,0 C 14.516021,4.7222604 15.694444,4.375 17,4.375 c 2.426044,0 4.125,1.8795865 4.125,4.3203125 0,0.6280281 -0.142776,1.2964846 -0.410156,1.9902345 a 0.875,0.875 0 0 0 0.501953,1.130859 0.875,0.875 0 0 0 1.130859,-0.501953 C 22.675276,10.464403 22.875,9.5861844 22.875,8.6953125 22.875,5.3984185 20.363356,2.625 17,2.625 15.482664,2.625 13.832031,3.30807 12,4.9277344 10.167969,3.30807 8.517336,2.625 7,2.625 Z" id="favorite-remove_path1"/> <path style="fill:#000000;stroke-linecap:round;stroke-linejoin:round" d="m 16,12.625 a 0.875,0.875 0 0 0 -0.619141,0.255859 0.875,0.875 0 0 0 0,1.238282 L 17.261719,16 l -1.88086,1.880859 a 0.875,0.875 0 0 0 0,1.238282 0.875,0.875 0 0 0 1.238282,0 L 18.5,17.238281 l 1.880859,1.88086 a 0.875,0.875 0 0 0 1.238282,0 0.875,0.875 0 0 0 0,-1.238282 L 19.738281,16 l 1.88086,-1.880859 a 0.875,0.875 0 0 0 0,-1.238282 0.875,0.875 0 0 0 -1.238282,0 L 18.5,14.761719 16.619141,12.880859 A 0.875,0.875 0 0 0 16,12.625 Z" id="favorite-remove_path2"/>
  </symbol>
  <symbol id="favorite-add" viewBox="0 0 24 24">
    <defs id="favorite-add_defs1"/> <path style="display:none;fill:#000000;stroke-linecap:round;stroke-linejoin:round" d="m 7,2.6276149 c -3.3633892,0 -5.875,2.7734266 -5.875,6.0703125 0,2.5457816 1.548795,4.9606936 3.3632812,7.0468746 1.8144863,2.086182 3.9536197,3.845378 5.3984376,4.925782 1.2514252,0.935735 2.9751372,0.935735 4.2265622,0 1.444825,-1.080405 3.585908,-2.8396 5.400391,-4.925782 C 21.328154,13.658621 22.875,11.243708 22.875,8.6979274 22.875,5.4010334 20.363356,2.6276149 17,2.6276149 c -1.517336,0 -3.167969,0.68307 -5,2.3027344 C 10.167966,3.3106844 8.517336,2.6276149 7,2.6276149 Z m 0,1.75 c 1.3055556,0 2.4839801,0.3472614 4.380859,2.2441406 a 0.8750875,0.8750875 0 0 0 1.238282,0 C 14.516021,4.7248753 15.694444,4.3776149 17,4.3776149 c 2.426044,0 4.125,1.8795865 4.125,4.3203125 0,1.7945796 -1.246098,3.9605036 -2.931641,5.8984376 -1.685542,1.937934 -3.750477,3.644533 -5.126953,4.673828 -0.647375,0.484065 -1.483484,0.484065 -2.130859,0 C 9.5590747,18.240897 7.49414,16.534299 5.8085937,14.596365 4.1230475,12.658431 2.875,10.492506 2.875,8.6979274 2.875,6.2571933 4.5739092,4.3776149 7,4.3776149 Z" id="favorite-add_path1"/> <path style="display:inline;fill:#000000;stroke-linecap:round;stroke-linejoin:round" d="m 7,2.6276147 c -3.3633892,0 -5.875,2.7734266 -5.875,6.0703125 0,2.5457818 1.5468433,4.9606948 3.3613281,7.0468758 1.814485,2.08618 3.955579,3.845378 5.400391,4.925781 1.2514249,0.935735 2.9751369,0.935735 4.2265619,0 a 0.875,0.875 0 0 0 0.177735,-1.22461 0.875,0.875 0 0 0 -1.226563,-0.175781 c -0.647375,0.484065 -1.481531,0.484065 -2.128906,0 C 9.559079,18.240896 7.4921858,16.534299 5.8066406,14.596365 4.1210955,12.658431 2.875,10.492506 2.875,8.6979272 2.875,6.2571931 4.5739092,4.3776147 7,4.3776147 c 1.3055561,0 2.4839791,0.3472604 4.380859,2.2441406 a 0.8750875,0.8750875 0 0 0 1.238282,0 C 14.516021,4.7248751 15.694444,4.3776147 17,4.3776147 c 2.426044,0 4.125,1.8795865 4.125,4.3203125 0,0.8999479 -0.297489,1.8871438 -0.824219,2.9003908 a 0.875,0.875 0 0 0 0.373047,1.179688 0.875,0.875 0 0 0 1.179688,-0.371094 C 22.468986,11.222959 22.875,9.9745791 22.875,8.6979272 22.875,5.4010332 20.363356,2.6276147 17,2.6276147 c -1.517336,0 -3.167969,0.68307 -5,2.3027344 C 10.167969,3.3106847 8.517336,2.6276147 7,2.6276147 Z m 10.5,9.0000003 a 0.875,0.875 0 0 0 -0.875,0.875 v 2.625 H 14 a 0.875,0.875 0 0 0 -0.875,0.875 0.875,0.875 0 0 0 0.875,0.875 h 2.625 v 2.625 a 0.875,0.875 0 0 0 0.875,0.875 0.875,0.875 0 0 0 0.875,-0.875 v -2.625 H 21 a 0.875,0.875 0 0 0 0.875,-0.875 0.875,0.875 0 0 0 -0.875,-0.875 h -2.625 v -2.625 a 0.875,0.875 0 0 0 -0.875,-0.875 z" id="favorite-add_path1-8"/>
  </symbol>
  <symbol id="close" viewBox="0 0 24 24">
    <defs id="close_defs1"/> <path style="fill:#000000;stroke-linecap:round;stroke-linejoin:round" d="m 6,5.25 a 0.75,0.75 0 0 0 -0.53125,0.2207031 0.75,0.75 0 0 0 0,1.0605469 L 10.9375,12 5.4707031,17.46875 a 0.75,0.75 0 0 0 0,1.060547 0.75,0.75 0 0 0 1.0605469,0 L 12,13.0625 l 5.46875,5.46875 a 0.75,0.75 0 0 0 1.060547,0 0.75,0.75 0 0 0 0,-1.0625 L 13.060547,12 18.53125,6.53125 a 0.75,0.75 0 0 0 0,-1.0625 0.75,0.75 0 0 0 -1.0625,0 L 12,10.939453 6.53125,5.4707031 A 0.75,0.75 0 0 0 6,5.25 Z" id="close_path1"/>
  </symbol>
  <symbol id="favorite-check" viewBox="0 0 24 24">
    <defs id="favorite-check_defs1"/> <path style="fill:#000000;stroke-linecap:round;stroke-linejoin:round" d="m 7,2.625 c -3.3633892,0 -5.875,2.7734266 -5.875,6.0703125 0,2.5457815 1.5468433,4.9606945 3.3613281,7.0468755 1.8144849,2.08618 3.9555786,3.845378 5.4003907,4.925781 1.0069442,0.752934 2.3182272,0.906162 3.4453122,0.443359 0.4462,-0.183752 0.659408,-0.694053 0.476563,-1.140625 -0.182988,-0.446964 -0.693513,-0.661139 -1.140625,-0.478516 -0.567915,0.233198 -1.211566,0.164857 -1.732422,-0.224609 C 9.5590789,18.238281 7.4921858,16.531684 5.8066406,14.59375 4.1210955,12.655816 2.875,10.489891 2.875,8.6953125 2.875,6.2545784 4.5739092,4.375 7,4.375 c 1.3055556,0 2.4839791,0.3472604 4.380859,2.2441406 0.341825,0.3422241 0.896457,0.3422241 1.238282,0 C 14.516021,4.7222604 15.694444,4.375 17,4.375 c 2.426044,0 4.125,1.8795865 4.125,4.3203125 0,0.3568414 -0.04589,0.7250804 -0.134766,1.1054688 -0.109764,0.4702617 0.182194,0.9405407 0.652344,1.0507817 0.470915,0.110995 0.942524,-0.181245 1.052734,-0.652344 C 22.81104,9.7038871 22.875,9.2014111 22.875,8.6953125 22.875,5.3984185 20.363356,2.625 17,2.625 15.482664,2.625 13.832031,3.30807 12,4.9277344 10.167969,3.30807 8.517336,2.625 7,2.625 Z m 14.707031,9.550781 c -1.747014,0.618741 -3.250591,2.215908 -4.4375,3.638672 -0.772838,0.926412 -0.969729,1.274123 -1.30664,1.769531 -0.288765,-0.349599 -0.584638,-0.88455 -0.851563,-1.0625 -0.262171,-0.17478 -0.505181,-0.276592 -0.699219,-0.332031 C 14.218072,16.134014 14,16.125 14,16.125 c -0.483249,0 -0.875,0.391751 -0.875,0.875 0,0.483249 0.391751,0.875 0.875,0.875 0,0 -0.09307,-0.009 -0.06836,-0.002 0.02471,0.0071 0.0942,0.03025 0.207031,0.105469 0.225658,0.150438 0.6303,0.516459 1.078125,1.412109 0.304192,0.608885 1.156523,0.652653 1.521484,0.07813 0,0 0.767784,-1.205968 1.875,-2.533203 1.107216,-1.327236 2.603202,-2.730069 3.679688,-3.111328 0.455099,-0.161918 0.692896,-0.661992 0.53125,-1.117188 C 22.6623,12.25189 22.162226,12.014093 21.70703,12.175739 Z" id="favorite-check_path1" />
  </symbol>
  <symbol id="catalog" viewBox="0 0 24 24">
    <defs id="catalog_defs4"/> <path style="fill:#000000;stroke-linejoin:round" d="M 6.5,2.25 C 5.09554,2.25 4.2444455,2.1972017 3.4726563,2.7128906 3.1723969,2.9135218 2.9135191,3.1723804 2.7128906,3.4726563 2.197186,4.2444461 2.25,5.09554 2.25,6.5 2.25,7.90446 2.197186,8.7555539 2.7128906,9.5273438 2.9135191,9.8276196 3.1723969,10.086478 3.4726563,10.287109 4.2444455,10.802798 5.09554,10.75 6.5,10.75 c 1.40447,0 2.2555545,0.0528 3.0273438,-0.462891 C 9.8276031,10.086478 10.086481,9.8276196 10.287109,9.5273438 10.802798,8.7555545 10.75,7.90446 10.75,6.5 10.75,5.09554 10.802798,4.2444455 10.287109,3.4726563 10.086481,3.1723804 9.8276031,2.9135218 9.5273438,2.7128906 8.7555545,2.1972017 7.90447,2.25 6.5,2.25 Z m 0,1.5 c 1.40447,0 1.9582018,0.052506 2.1953125,0.2109375 0.1365007,0.091209 0.2525585,0.2072658 0.34375,0.34375 C 9.1974936,4.5417982 9.25,5.09554 9.25,6.5 9.25,7.90446 9.1974936,8.4582018 9.0390625,8.6953125 8.947871,8.8317967 8.8318132,8.9478537 8.6953125,9.0390625 8.4582018,9.1974936 7.90447,9.25 6.5,9.25 5.09554,9.25 4.5417982,9.1974936 4.3046875,9.0390625 4.1681868,8.9478537 4.052129,8.8317967 3.9609375,8.6953125 3.8025021,8.4582023 3.75,7.90446 3.75,6.5 3.75,5.09554 3.8025021,4.5417977 3.9609375,4.3046875 4.052129,4.1682033 4.1681868,4.0521463 4.3046875,3.9609375 4.5417982,3.8025064 5.09554,3.75 6.5,3.75 Z" id="catalog_path1"/> <path style="fill:#000000;stroke-linejoin:round" d="M 17.5,2.25 C 16.0955,2.25 15.244456,2.197246 14.472656,2.7128906 14.172535,2.913503 13.913544,3.1725288 13.712891,3.4726563 13.197296,4.244442 13.25,5.09554 13.25,6.5 c 0,1.40446 -0.0527,2.255558 0.462891,3.0273438 0.200653,0.3001274 0.459644,0.5591532 0.759765,0.7597652 C 15.244456,10.802754 16.0955,10.75 17.5,10.75 c 1.4044,0 2.255549,0.05285 3.027344,-0.462891 0.300294,-0.200636 0.55914,-0.4594729 0.759765,-0.7597652 C 21.802861,8.7555522 21.75,7.90446 21.75,6.5 21.75,5.09554 21.802861,4.2444478 21.287109,3.4726563 21.086484,3.1723639 20.827638,2.9135265 20.527344,2.7128906 19.755549,2.1971471 18.9044,2.25 17.5,2.25 Z m 0,1.5 c 1.4044,0 1.958307,0.052561 2.195312,0.2109375 0.136507,0.091204 0.252576,0.2072823 0.34375,0.34375 C 20.197511,4.5417959 20.25,5.09554 20.25,6.5 c 0,1.40446 -0.05249,1.9582041 -0.210938,2.1953125 -0.09117,0.1364677 -0.207243,0.2525459 -0.34375,0.34375 C 19.458307,9.197439 18.9044,9.25 17.5,9.25 c -1.4045,0 -1.958112,-0.052462 -2.195312,-0.2109375 -0.136092,-0.090969 -0.252516,-0.2076154 -0.34375,-0.34375 v -0.00195 C 14.802859,8.4558974 14.75,7.9032219 14.75,6.5 c 0,-1.4032219 0.05286,-1.9558974 0.210938,-2.1933594 v -0.00195 c 0.09123,-0.1361346 0.207658,-0.2527815 0.34375,-0.34375 C 15.541888,3.8024621 16.0955,3.75 17.5,3.75 Z" id="catalog_path2"/> <path style="fill:#000000;stroke-linejoin:round" d="m 6.5,13.25 c -1.40446,0 -2.2555522,-0.05286 -3.0273437,0.462891 C 3.1723639,13.913516 2.9135238,14.172346 2.7128906,14.472656 2.1971569,15.244413 2.25,16.0955 2.25,17.5 c 0,1.4045 -0.052843,2.255587 0.4628906,3.027344 0.2006332,0.30031 0.4594733,0.55914 0.7597657,0.759765 C 4.2444478,21.802861 5.09554,21.75 6.5,21.75 c 1.40447,0 2.2555522,0.05286 3.0273438,-0.462891 C 9.8276361,21.086484 10.086476,20.827654 10.287109,20.527344 10.802827,19.755587 10.75,18.9045 10.75,17.5 c 0,-1.4045 0.05283,-2.255587 -0.462891,-3.027344 C 10.086476,14.172346 9.8276361,13.913516 9.5273438,13.712891 8.7555522,13.197139 7.90447,13.25 6.5,13.25 Z m 0,1.5 c 1.40447,0 1.9582041,0.05249 2.1953125,0.210938 0.1364677,0.09117 0.2525632,0.20726 0.34375,0.34375 C 9.1974645,15.541731 9.25,16.0955 9.25,17.5 c 0,1.4045 -0.052535,1.958269 -0.2109375,2.195312 -0.091187,0.13649 -0.2072823,0.252576 -0.34375,0.34375 C 8.4582041,20.197511 7.90447,20.25 6.5,20.25 5.09554,20.25 4.5417959,20.197511 4.3046875,20.039062 4.1682198,19.947888 4.0521243,19.831802 3.9609375,19.695312 3.8025312,19.458269 3.75,18.9045 3.75,17.5 c 0,-1.4045 0.052531,-1.958269 0.2109375,-2.195312 0.091187,-0.13649 0.2072823,-0.252576 0.34375,-0.34375 C 4.5417959,14.802489 5.09554,14.75 6.5,14.75 Z" id="catalog_path3"/> <path style="fill:#000000;stroke-linejoin:round" d="m 17.5,13.25 c -1.4045,0 -2.255542,-0.05282 -3.027344,0.462891 -0.300154,0.200607 -0.559108,0.459603 -0.759765,0.759765 C 13.197267,15.244409 13.25,16.0955 13.25,17.5 c 0,1.4045 -0.05273,2.255591 0.462891,3.027344 0.200657,0.300162 0.459611,0.559158 0.759765,0.759765 C 15.244458,21.802817 16.0955,21.75 17.5,21.75 c 1.4044,0 2.255547,0.05292 3.027344,-0.462891 0.300327,-0.20063 0.559135,-0.459438 0.759765,-0.759765 C 21.80289,19.755585 21.75,18.9045 21.75,17.5 c 0,-1.4045 0.05289,-2.255585 -0.462891,-3.027344 -0.20063,-0.300327 -0.459438,-0.559135 -0.759765,-0.759765 C 19.755547,13.197084 18.9044,13.25 17.5,13.25 Z m 0,1.5 c 1.4044,0 1.958309,0.05254 2.195312,0.210938 0.136474,0.09117 0.252581,0.207276 0.34375,0.34375 C 20.197482,15.541729 20.25,16.0955 20.25,17.5 c 0,1.4045 -0.05252,1.958271 -0.210938,2.195312 -0.09117,0.136474 -0.207276,0.252581 -0.34375,0.34375 C 19.458309,20.197456 18.9044,20.25 17.5,20.25 c -1.4045,0 -1.958114,-0.05244 -2.195312,-0.210938 -0.136059,-0.09093 -0.252521,-0.20761 -0.34375,-0.34375 v -0.002 C 14.802888,19.455964 14.75,18.903262 14.75,17.5 c 0,-1.403262 0.05289,-1.955964 0.210938,-2.193359 v -0.002 c 0.09123,-0.13614 0.207691,-0.252816 0.34375,-0.34375 C 15.541886,14.802445 16.0955,14.75 17.5,14.75 Z" id="catalog_path4"/>
  </symbol>
  <symbol id="favorite" viewBox="0 0 24 24">
    <defs id="favorite_defs1"/> <path style="display:inline;fill:#000000;stroke-linecap:round;stroke-linejoin:round" d="m 7,2.6276149 c -3.3633892,0 -5.875,2.7734266 -5.875,6.0703125 0,2.5457816 1.548795,4.9606936 3.3632812,7.0468746 1.8144863,2.086182 3.9536197,3.845378 5.3984376,4.925782 1.2514252,0.935735 2.9751372,0.935735 4.2265622,0 1.444825,-1.080405 3.585908,-2.8396 5.400391,-4.925782 C 21.328154,13.658621 22.875,11.243708 22.875,8.6979274 22.875,5.4010334 20.363356,2.6276149 17,2.6276149 c -1.517336,0 -3.167969,0.68307 -5,2.3027344 C 10.167966,3.3106844 8.517336,2.6276149 7,2.6276149 Z m 0,1.75 c 1.3055556,0 2.4839801,0.3472614 4.380859,2.2441406 a 0.8750875,0.8750875 0 0 0 1.238282,0 C 14.516021,4.7248753 15.694444,4.3776149 17,4.3776149 c 2.426044,0 4.125,1.8795865 4.125,4.3203125 0,1.7945796 -1.246098,3.9605036 -2.931641,5.8984376 -1.685542,1.937934 -3.750477,3.644533 -5.126953,4.673828 -0.647375,0.484065 -1.483484,0.484065 -2.130859,0 C 9.5590747,18.240897 7.49414,16.534299 5.8085937,14.596365 4.1230475,12.658431 2.875,10.492506 2.875,8.6979274 2.875,6.2571933 4.5739092,4.3776149 7,4.3776149 Z" id="favorite_path1"/> <path style="display:none;fill:#000000;stroke-linecap:round;stroke-linejoin:round" d="m 7,2.6276147 c -3.3633892,0 -5.875,2.7734266 -5.875,6.0703125 0,2.5457818 1.5468433,4.9606948 3.3613281,7.0468758 1.814485,2.08618 3.955579,3.845378 5.400391,4.925781 1.2514249,0.935735 2.9751369,0.935735 4.2265619,0 a 0.875,0.875 0 0 0 0.177735,-1.22461 0.875,0.875 0 0 0 -1.226563,-0.175781 c -0.647375,0.484065 -1.481531,0.484065 -2.128906,0 C 9.559079,18.240896 7.4921858,16.534299 5.8066406,14.596365 4.1210955,12.658431 2.875,10.492506 2.875,8.6979272 2.875,6.2571931 4.5739092,4.3776147 7,4.3776147 c 1.3055561,0 2.4839791,0.3472604 4.380859,2.2441406 a 0.8750875,0.8750875 0 0 0 1.238282,0 C 14.516021,4.7248751 15.694444,4.3776147 17,4.3776147 c 2.426044,0 4.125,1.8795865 4.125,4.3203125 0,0.8999479 -0.297489,1.8871438 -0.824219,2.9003908 a 0.875,0.875 0 0 0 0.373047,1.179688 0.875,0.875 0 0 0 1.179688,-0.371094 C 22.468986,11.222959 22.875,9.9745791 22.875,8.6979272 22.875,5.4010332 20.363356,2.6276147 17,2.6276147 c -1.517336,0 -3.167969,0.68307 -5,2.3027344 C 10.167969,3.3106847 8.517336,2.6276147 7,2.6276147 Z m 10.5,9.0000003 a 0.875,0.875 0 0 0 -0.875,0.875 v 2.625 H 14 a 0.875,0.875 0 0 0 -0.875,0.875 0.875,0.875 0 0 0 0.875,0.875 h 2.625 v 2.625 a 0.875,0.875 0 0 0 0.875,0.875 0.875,0.875 0 0 0 0.875,-0.875 v -2.625 H 21 a 0.875,0.875 0 0 0 0.875,-0.875 0.875,0.875 0 0 0 -0.875,-0.875 h -2.625 v -2.625 a 0.875,0.875 0 0 0 -0.875,-0.875 z" id="favorite_path1-8"/>
  </symbol>
  <symbol id="home" viewBox="0 0 24 24">
    <defs id="home_defs1"/> <path style="fill:#000000;stroke-linecap:round;stroke-linejoin:round" d="M 12,1.75 C 11.232415,1.75 10.517317,2.0190069 9.7871094,2.4589844 9.0569022,2.8989618 8.2744213,3.5135572 7.2421875,4.3164062 l -2,1.5566407 C 3.9151066,6.9052176 3.137687,7.4776889 2.6816406,8.4101563 2.225588,9.3426103 2.25,10.308934 2.25,11.990234 V 14.5 c 0,1.6499 -0.0048,2.90139 0.1347656,3.939453 0.1395643,1.038063 0.4545676,1.911554 1.109375,2.566406 0.6548215,0.654809 1.5283456,0.969815 2.5664063,1.109375 C 7.0986075,22.254794 8.350085,22.25 10,22.25 h 4 c 1.6499,0 2.901392,0.0048 3.939453,-0.134766 1.038061,-0.139559 1.911552,-0.454584 2.566406,-1.109375 0.654791,-0.654854 0.969816,-1.528345 1.109375,-2.566406 C 21.754794,17.401392 21.75,16.1499 21.75,14.5 v -2.509766 c 0,-1.6813 0.02441,-2.6476237 -0.431641,-3.5800777 C 20.862313,7.4777157 20.084921,6.9052232 18.757812,5.8730469 l -2,-1.5566407 C 15.725565,3.5135581 14.943098,2.8989611 14.212891,2.4589844 13.482683,2.0190076 12.767585,1.75 12,1.75 Z m 0,1.5 c 0.433315,0 0.835257,0.1312674 1.4375,0.4941406 C 14.039743,4.1070139 14.805638,4.6971482 15.837891,5.5 l 2,1.5566406 c 1.327091,1.0321637 1.877058,1.4907525 2.132812,2.0136719 C 20.22645,9.5932185 20.25,10.308934 20.25,11.990234 V 14.5 c 0,1.6499 -0.0044,2.872095 -0.121094,3.740234 -0.116715,0.86814 -0.313284,1.334733 -0.683594,1.705078 -0.370345,0.37031 -0.836938,0.566879 -1.705078,0.683594 C 16.872095,20.745621 15.6499,20.75 14,20.75 h -4 c -1.649915,0 -2.8720975,-0.0044 -3.7402344,-0.121094 C 5.3916288,20.512191 4.924986,20.315604 4.5546875,19.945312 4.1843649,19.574965 3.987812,19.108371 3.8710938,18.240234 3.7543755,17.372098 3.75,16.1499 3.75,14.5 v -2.509766 c 0,-1.6813 0.02355,-2.3970155 0.2792969,-2.9199215 C 4.2850305,8.5474199 4.8350303,8.0888099 6.1621094,7.0566406 l 2,-1.5566406 C 9.1943455,4.6971491 9.9602597,4.1070132 10.5625,3.7441406 11.16474,3.3812681 11.566685,3.25 12,3.25 Z M 8.9082031,16.255859 a 0.75,0.75 0 0 0 -0.5,0.283203 0.75,0.75 0 0 0 0.1308594,1.052735 C 9.4737687,18.319426 10.685569,18.75 12,18.75 c 1.314345,0 2.526226,-0.430543 3.460938,-1.158203 a 0.75,0.75 0 0 0 0.130859,-1.052735 0.75,0.75 0 0 0 -1.052734,-0.130859 C 13.874774,16.925343 12.986055,17.25 12,17.25 c -0.986169,0 -1.874709,-0.324626 -2.5390625,-0.841797 A 0.75,0.75 0 0 0 8.9082031,16.255859 Z" id="home_path1"/>
  </symbol>
  <symbol id="logo" viewBox="0 0 96 16">
    <path d="M90.1211 15.9574C88.9989 15.9574 88.033 15.7301 87.2234 15.2756C86.4184 14.8163 85.7982 14.1676 85.3626 13.3295C84.927 12.4867 84.7092 11.49 84.7092 10.3395C84.7092 9.21732 84.927 8.23248 85.3626 7.38494C85.7982 6.5374 86.4113 5.87689 87.2021 5.4034C87.9975 4.92992 88.9303 4.69318 90.0004 4.69318C90.7201 4.69318 91.39 4.80918 92.0103 5.04119C92.6353 5.26846 93.1798 5.61174 93.6438 6.07102C94.1126 6.5303 94.4772 7.10795 94.7376 7.80397C94.998 8.49526 95.1282 9.30492 95.1282 10.2329V11.0639H85.9166V9.18891H92.2802C92.2802 8.75331 92.1855 8.36742 91.9961 8.03124C91.8067 7.69507 91.5439 7.43229 91.2077 7.24289C90.8763 7.04876 90.4904 6.9517 90.0501 6.9517C89.5908 6.9517 89.1836 7.05823 88.8285 7.2713C88.4781 7.47963 88.2035 7.76136 88.0046 8.11647C87.8058 8.46685 87.704 8.85748 87.6992 9.28835V11.071C87.6992 11.6108 87.7987 12.0772 87.9975 12.4702C88.2011 12.8632 88.4876 13.1662 88.8569 13.3793C89.2262 13.5923 89.6642 13.6989 90.1708 13.6989C90.507 13.6989 90.8148 13.6515 91.0941 13.5568C91.3735 13.4621 91.6126 13.3201 91.8114 13.1307C92.0103 12.9413 92.1618 12.7093 92.266 12.4347L95.0643 12.6193C94.9222 13.2917 94.631 13.8788 94.1907 14.3807C93.7551 14.8778 93.1916 15.2661 92.5004 15.5454C91.8138 15.8201 91.0207 15.9574 90.1211 15.9574Z" fill="#1A1A1A"/>
<path d="M77.9737 15.7443V4.83524H80.907V6.73864H81.0206C81.2195 6.06156 81.5533 5.5502 82.022 5.20455C82.4908 4.85418 83.0305 4.67899 83.6413 4.67899C83.7929 4.67899 83.9562 4.68846 84.1314 4.70739C84.3066 4.72633 84.4605 4.75238 84.593 4.78552V7.47018C84.451 7.42756 84.2545 7.38969 84.0036 7.35654C83.7526 7.3234 83.523 7.30683 83.3146 7.30683C82.8696 7.30683 82.4718 7.40389 82.1215 7.59802C81.7758 7.78741 81.5012 8.05256 81.2976 8.39347C81.0987 8.73438 80.9993 9.12738 80.9993 9.57245V15.7443H77.9737Z" fill="#1A1A1A"/>
<path d="M71.1371 15.9574C70.0339 15.9574 69.0798 15.723 68.2749 15.2543C67.4747 14.7808 66.8568 14.1226 66.4212 13.2798C65.9856 12.4323 65.7678 11.4498 65.7678 10.3324C65.7678 9.20549 65.9856 8.22064 66.4212 7.37783C66.8568 6.5303 67.4747 5.87215 68.2749 5.4034C69.0798 4.92992 70.0339 4.69318 71.1371 4.69318C72.2403 4.69318 73.192 4.92992 73.9922 5.4034C74.7971 5.87215 75.4174 6.5303 75.853 7.37783C76.2886 8.22064 76.5064 9.20549 76.5064 10.3324C76.5064 11.4498 76.2886 12.4323 75.853 13.2798C75.4174 14.1226 74.7971 14.7808 73.9922 15.2543C73.192 15.723 72.2403 15.9574 71.1371 15.9574ZM71.1513 13.6136C71.6532 13.6136 72.0722 13.4716 72.4084 13.1875C72.7446 12.8987 72.9979 12.5057 73.1683 12.0085C73.3435 11.5114 73.4311 10.9455 73.4311 10.3111C73.4311 9.6766 73.3435 9.11079 73.1683 8.61363C72.9979 8.11647 72.7446 7.72348 72.4084 7.43465C72.0722 7.14583 71.6532 7.00141 71.1513 7.00141C70.6447 7.00141 70.2185 7.14583 69.8729 7.43465C69.532 7.72348 69.2739 8.11647 69.0987 8.61363C68.9283 9.11079 68.843 9.6766 68.843 10.3111C68.843 10.9455 68.9283 11.5114 69.0987 12.0085C69.2739 12.5057 69.532 12.8987 69.8729 13.1875C70.2185 13.4716 70.6447 13.6136 71.1513 13.6136Z" fill="#1A1A1A"/>
<path d="M64.8544 4.83523V7.10795H58.2848V4.83523H64.8544ZM59.7763 2.22159H62.8018V12.392C62.8018 12.6714 62.8445 12.8892 62.9297 13.0455C63.0149 13.197 63.1333 13.3035 63.2848 13.3651C63.4411 13.4266 63.621 13.4574 63.8246 13.4574C63.9666 13.4574 64.1087 13.4455 64.2507 13.4219C64.3928 13.3935 64.5017 13.3722 64.5774 13.358L65.0533 15.6094C64.9018 15.6567 64.6887 15.7112 64.4141 15.7727C64.1394 15.839 63.8056 15.8793 63.4126 15.8935C62.6835 15.9219 62.0443 15.8248 61.495 15.6023C60.9505 15.3797 60.5268 15.0341 60.2237 14.5653C59.9207 14.0966 59.7715 13.5047 59.7763 12.7898V2.22159Z" fill="#1A1A1A"/>
<path d="M54.3938 5.3821C54.337 4.80919 54.0932 4.36411 53.6623 4.04688C53.2314 3.72964 52.6467 3.57102 51.908 3.57102C51.4061 3.57102 50.9824 3.64205 50.6367 3.78409C50.2911 3.9214 50.0259 4.11316 49.8413 4.35938C49.6613 4.60559 49.5714 4.88494 49.5714 5.19744C49.5619 5.45786 49.6164 5.68513 49.7347 5.87926C49.8578 6.07339 50.0259 6.24148 50.239 6.38352C50.4521 6.52083 50.6983 6.64157 50.9776 6.74574C51.257 6.84517 51.5553 6.9304 51.8725 7.00142L53.1793 7.31392C53.8138 7.45597 54.3962 7.64536 54.9265 7.8821C55.4568 8.11885 55.9161 8.41004 56.3043 8.75568C56.6926 9.10133 56.9933 9.50852 57.2063 9.97727C57.4241 10.446 57.5354 10.9834 57.5401 11.5895C57.5354 12.4796 57.3081 13.2514 56.8583 13.9048C56.4132 14.5535 55.7693 15.0578 54.9265 15.4176C54.0884 15.7727 53.0775 15.9503 51.8938 15.9503C50.7196 15.9503 49.6969 15.7704 48.8256 15.4105C47.9592 15.0507 47.2821 14.518 46.7944 13.8125C46.3114 13.1023 46.0581 12.224 46.0345 11.1776H49.0103C49.0434 11.6652 49.1831 12.0724 49.4293 12.3991C49.6803 12.7211 50.0141 12.965 50.4308 13.1307C50.8522 13.2917 51.328 13.3722 51.8583 13.3722C52.3792 13.3722 52.8313 13.2964 53.2149 13.1449C53.6031 12.9934 53.9038 12.7827 54.1168 12.5128C54.3299 12.2429 54.4364 11.9328 54.4364 11.5824C54.4364 11.2557 54.3394 10.9811 54.1452 10.7585C53.9559 10.536 53.6765 10.3466 53.3072 10.1903C52.9426 10.0341 52.4952 9.89205 51.9649 9.7642L50.381 9.36648C49.1547 9.06818 48.1864 8.6018 47.4762 7.96733C46.766 7.33286 46.4132 6.47822 46.418 5.40341C46.4132 4.52273 46.6476 3.75332 47.1211 3.09517C47.5993 2.43703 48.2551 1.9233 49.0884 1.55398C49.9218 1.18466 50.8687 1 51.9293 1C53.0089 1 53.9511 1.18466 54.756 1.55398C55.5657 1.9233 56.1954 2.43703 56.6452 3.09517C57.0951 3.75332 57.3271 4.51563 57.3413 5.3821H54.3938Z" fill="#1A1A1A"/>
<path d="M37.4915 9.43752V15.7443H34.4659V1.19888H37.4063V6.75996H37.5341C37.7803 6.11602 38.178 5.61176 38.7273 5.24718C39.2765 4.87786 39.9654 4.6932 40.794 4.6932C41.5516 4.6932 42.2121 4.85892 42.7756 5.19036C43.3438 5.51706 43.7841 5.98818 44.0966 6.60371C44.4138 7.21451 44.5701 7.94604 44.5653 8.79832V15.7443H41.5398V9.33809C41.5445 8.66574 41.3741 8.14254 41.0284 7.76849C40.6875 7.39443 40.2093 7.20741 39.5938 7.20741C39.1818 7.20741 38.8172 7.295 38.5 7.47019C38.1875 7.64538 37.9413 7.90106 37.7614 8.23724C37.5862 8.56867 37.4962 8.96877 37.4915 9.43752Z" fill="#1A1A1A"/>
<path d="M28.1566 15.9574C27.0392 15.9574 26.078 15.7206 25.2731 15.2472C24.4729 14.7689 23.8574 14.1061 23.4265 13.2585C23.0004 12.411 22.7873 11.4356 22.7873 10.3324C22.7873 9.21496 23.0027 8.23484 23.4336 7.39204C23.8692 6.5445 24.4871 5.88399 25.2873 5.41051C26.0875 4.93229 27.0392 4.69318 28.1424 4.69318C29.0941 4.69318 29.9274 4.866 30.6424 5.21164C31.3574 5.55729 31.9232 6.04261 32.3398 6.66761C32.7565 7.29261 32.9862 8.02651 33.0288 8.86931H30.1737C30.0932 8.3248 29.8801 7.88683 29.5345 7.55539C29.1935 7.21922 28.7461 7.05113 28.1921 7.05113C27.7234 7.05113 27.3138 7.17897 26.9634 7.43465C26.6178 7.6856 26.3479 8.05255 26.1538 8.53551C25.9596 9.01846 25.8626 9.60321 25.8626 10.2898C25.8626 10.9858 25.9573 11.5776 26.1467 12.0653C26.3408 12.553 26.613 12.9247 26.9634 13.1804C27.3138 13.4361 27.7234 13.5639 28.1921 13.5639C28.5378 13.5639 28.8479 13.4929 29.1225 13.3508C29.4019 13.2088 29.6315 13.0028 29.8114 12.7329C29.9961 12.4583 30.1168 12.1293 30.1737 11.7457H33.0288C32.9814 12.5791 32.7541 13.313 32.347 13.9474C31.9445 14.5772 31.3881 15.0696 30.6779 15.4247C29.9677 15.7798 29.1273 15.9574 28.1566 15.9574Z" fill="#1A1A1A"/>
<path d="M16.7461 15.9574C15.6239 15.9574 14.658 15.7301 13.8484 15.2756C13.0434 14.8163 12.4232 14.1676 11.9876 13.3295C11.552 12.4867 11.3342 11.49 11.3342 10.3395C11.3342 9.21732 11.552 8.23248 11.9876 7.38494C12.4232 6.5374 13.0363 5.87689 13.8271 5.4034C14.6225 4.92992 15.5553 4.69318 16.6254 4.69318C17.3451 4.69318 18.015 4.80918 18.6353 5.04119C19.2603 5.26846 19.8048 5.61174 20.2688 6.07102C20.7376 6.5303 21.1022 7.10795 21.3626 7.80397C21.623 8.49526 21.7532 9.30492 21.7532 10.2329V11.0639H12.5416V9.18891H18.9052C18.9052 8.75331 18.8105 8.36742 18.6211 8.03124C18.4317 7.69507 18.1689 7.43229 17.8327 7.24289C17.5013 7.04876 17.1154 6.9517 16.6751 6.9517C16.2158 6.9517 15.8086 7.05823 15.4535 7.2713C15.1031 7.47963 14.8285 7.76136 14.6296 8.11647C14.4308 8.46685 14.329 8.85748 14.3242 9.28835V11.071C14.3242 11.6108 14.4237 12.0772 14.6225 12.4702C14.8261 12.8632 15.1126 13.1662 15.4819 13.3793C15.8512 13.5923 16.2892 13.6989 16.7958 13.6989C17.132 13.6989 17.4398 13.6515 17.7191 13.5568C17.9985 13.4621 18.2376 13.3201 18.4364 13.1307C18.6353 12.9413 18.7868 12.7093 18.891 12.4347L21.6893 12.6193C21.5472 13.2917 21.256 13.8788 20.8157 14.3807C20.3801 14.8778 19.8166 15.2661 19.1254 15.5454C18.4388 15.8201 17.6457 15.9574 16.7461 15.9574Z" fill="#1A1A1A"/>
<path d="M7.62939e-06 3.73439V1.19888H11.946V3.73439H7.49291V15.7443H4.45313V3.73439H7.62939e-06Z" fill="#1A1A1A"/>
  </symbol>
  <symbol id="menu" viewBox="0 0 24 24">
    <defs id="menu_defs1"/> <path style="fill:#000000;stroke-linecap:round;stroke-linejoin:round" d="M 4,7.75 A 0.75,0.75 0 0 0 3.25,8.5 0.75,0.75 0 0 0 4,9.25 H 20 A 0.75,0.75 0 0 0 20.75,8.5 0.75,0.75 0 0 0 20,7.75 Z m 0,7 A 0.75,0.75 0 0 0 3.25,15.5 0.75,0.75 0 0 0 4,16.25 H 20 A 0.75,0.75 0 0 0 20.75,15.5 0.75,0.75 0 0 0 20,14.75 Z" id="menu_path1"/>
  </symbol>
  <symbol id="placeholder" viewBox="0 0 24 24">
    <defs id="placeholder_defs1"/> <path style="fill:#000000;stroke-linecap:round;stroke-linejoin:round" d="m 12,1.25 c -0.73517,0 -1.453495,0.073769 -2.1484375,0.2148437 A 0.75,0.75 0 0 0 9.265625,2.3496094 0.75,0.75 0 0 0 10.148438,2.9355469 C 10.745895,2.8142616 11.36537,2.75 12,2.75 c 0.63463,0 1.254105,0.064262 1.851563,0.1855469 A 0.75,0.75 0 0 0 14.734375,2.3496094 0.75,0.75 0 0 0 14.148438,1.4648437 C 13.453495,1.323769 12.73517,1.25 12,1.25 Z m 5.349609,1.6621094 a 0.75,0.75 0 0 0 -0.476562,0.3222656 0.75,0.75 0 0 0 0.214844,1.0390625 c 1.048342,0.6916821 1.946959,1.5903068 2.638671,2.6386719 a 0.75,0.75 0 0 0 1.039063,0.2148437 0.75,0.75 0 0 0 0.212891,-1.0390625 C 20.174828,4.8698157 19.130167,3.8251423 17.912109,3.0214844 a 0.75,0.75 0 0 0 -0.5625,-0.109375 z M 6.0878906,3.0214844 C 4.8698086,3.8251442 3.8251442,4.8698086 3.0214844,6.0878906 A 0.75,0.75 0 0 0 3.234375,7.1269531 0.75,0.75 0 0 0 4.2734375,6.9121094 C 4.9651177,5.8637514 5.8637514,4.9651177 6.9121094,4.2734375 A 0.75,0.75 0 0 0 7.1269531,3.234375 0.75,0.75 0 0 0 6.0878906,3.0214844 Z M 2.3496094,9.265625 A 0.75,0.75 0 0 0 1.4648437,9.8515625 C 1.323769,10.546505 1.25,11.26483 1.25,12 c 0,0.73517 0.073769,1.453495 0.2148437,2.148438 a 0.75,0.75 0 0 0 0.8847657,0.585937 0.75,0.75 0 0 0 0.5859375,-0.882812 C 2.8142616,13.254105 2.75,12.63463 2.75,12 c 0,-0.63463 0.064262,-1.254105 0.1855469,-1.851562 A 0.75,0.75 0 0 0 2.3496094,9.265625 Z m 19.3007816,0 a 0.75,0.75 0 0 0 -0.585938,0.882813 C 21.185682,10.745981 21.25,11.365399 21.25,12 c 0,0.634601 -0.06432,1.254019 -0.185547,1.851563 a 0.75,0.75 0 0 0 0.585938,0.882812 0.75,0.75 0 0 0 0.884765,-0.585937 C 22.676128,13.453581 22.75,12.735199 22.75,12 c 0,-0.735199 -0.07387,-1.453581 -0.214844,-2.1484375 A 0.75,0.75 0 0 0 21.650391,9.265625 Z m -1.447266,7.5 a 0.75,0.75 0 0 0 -0.476563,0.322266 c -0.691714,1.048349 -1.590322,1.946957 -2.638671,2.638671 a 0.75,0.75 0 0 0 -0.214844,1.039063 0.75,0.75 0 0 0 1.039062,0.212891 C 19.13016,20.17483 20.17483,19.13016 20.978516,17.912109 a 0.75,0.75 0 0 0 -0.212891,-1.039062 0.75,0.75 0 0 0 -0.5625,-0.107422 z m -16.96875,0.107422 a 0.75,0.75 0 0 0 -0.2128906,1.039062 c 0.8036579,1.218058 1.8483313,2.262719 3.0664062,3.066407 A 0.75,0.75 0 0 0 7.1269531,20.765625 0.75,0.75 0 0 0 6.9121094,19.726562 C 5.8637443,19.03485 4.9651196,18.136233 4.2734375,17.087891 A 0.75,0.75 0 0 0 3.234375,16.873047 Z m 6.914063,4.191406 a 0.75,0.75 0 0 0 -0.882813,0.585938 0.75,0.75 0 0 0 0.5859375,0.884765 C 10.546419,22.676128 11.264801,22.75 12,22.75 c 0.735199,0 1.453581,-0.07387 2.148438,-0.214844 a 0.75,0.75 0 0 0 0.585937,-0.884765 0.75,0.75 0 0 0 -0.882812,-0.585938 C 13.254019,21.185682 12.634601,21.25 12,21.25 c -0.634601,0 -1.254019,-0.06432 -1.851562,-0.185547 z" id="placeholder_path1"/>
  </symbol>
  <symbol id="star" viewBox="0 0 25 24">
    <path d="M12.5 19.2371L4.77392 24L6.87434 15.1111L0 9.1675L9.0234 8.43781L12.5 0L15.9766 8.43781L25 9.1675L18.1257 15.1111L20.2261 24L12.5 19.2371Z" fill="#42307D" fill-opacity="0.8"/>
  </symbol>
  <symbol id="shopping-basket" viewBox="0 0 24 24">
    <defs id="shopping-basket_defs1"/> <path style="fill:#000000;stroke-linecap:round;stroke-linejoin:round" d="M 12,1.25 C 10.484183,1.25 9.2985411,2.4309995 8.5058594,3.9550781 8.1510246,4.6373143 7.8885997,5.4330552 7.6777344,6.2617187 6.9184412,6.262171 6.2462549,6.2573183 5.7050781,6.3300781 5.075486,6.4147251 4.4898369,6.6195307 4.0546875,7.0546875 3.6195307,7.4898369 3.4147251,8.075486 3.3300781,8.7050781 3.2454311,9.3346702 3.25,10.05719 3.25,11 v 4 c 0,1.6499 -0.0048,2.90139 0.1347656,3.939453 0.1395643,1.038063 0.4545676,1.911554 1.109375,2.566406 0.6548215,0.654809 1.5283456,0.969815 2.5664063,1.109375 C 8.0986075,22.754794 9.350085,22.75 11,22.75 h 2 c 1.6499,0 2.901392,0.0048 3.939453,-0.134766 1.038061,-0.139559 1.911552,-0.454584 2.566406,-1.109375 0.654791,-0.654854 0.969816,-1.528345 1.109375,-2.566406 C 20.754794,17.901392 20.75,16.6499 20.75,15 v -4 c 0,-0.94281 0.0046,-1.6653284 -0.08008,-2.2949219 C 20.585273,8.0754847 20.380476,7.4898357 19.945312,7.0546875 19.510157,6.6195395 18.924511,6.4147252 18.294922,6.3300781 17.753747,6.2573183 17.081551,6.262171 16.322266,6.2617187 16.111397,5.433055 15.848978,4.6373137 15.494141,3.9550781 14.701454,2.4310009 13.515805,1.25 12,1.25 Z m 0,1.5 c 0.693295,0 1.507071,0.6370591 2.162109,1.8964844 C 14.399024,5.1019935 14.565711,5.6816559 14.734375,6.25 H 9.265625 C 9.4342869,5.6816558 9.6009781,5.101993 9.8378906,4.6464844 10.492924,3.3870605 11.306677,2.75 12,2.75 Z m -3.0527344,5 H 15.052734 C 15.140239,8.3267562 15.25,8.8969554 15.25,9.5 A 0.75,0.75 0 0 0 16,10.25 0.75,0.75 0 0 0 16.75,9.5 c 0,-0.5978212 -0.117768,-1.1567865 -0.193359,-1.7324219 0.595243,0.00456 1.199652,0.00346 1.537109,0.048828 0.459661,0.0618 0.640371,0.1481862 0.791016,0.2988282 0.150637,0.1506318 0.237026,0.3313541 0.298828,0.7910156 C 19.245395,9.3659115 19.25,10.05719 19.25,11 v 4 c 0,1.6499 -0.0044,2.872095 -0.121094,3.740234 -0.116715,0.86814 -0.313284,1.334733 -0.683594,1.705078 -0.370345,0.37031 -0.836938,0.566879 -1.705078,0.683594 C 15.872095,21.245621 14.6499,21.25 13,21.25 h -2 c -1.649915,0 -2.8720975,-0.0044 -3.7402344,-0.121094 C 6.3916288,21.012191 5.924986,20.815604 5.5546875,20.445312 5.1843649,20.074965 4.987812,19.608371 4.8710937,18.740234 4.7543755,17.872098 4.75,16.6499 4.75,15 v -4 c 0,-0.94281 0.00461,-1.6340871 0.066406,-2.09375 0.0618,-0.4596629 0.148195,-0.640385 0.2988282,-0.7910156 C 5.265865,7.9646012 5.4465871,7.8782067 5.90625,7.8164062 6.2437083,7.7710359 6.8481093,7.7721419 7.4433594,7.7675781 7.3677694,8.343213 7.25,8.9021795 7.25,9.5 A 0.75,0.75 0 0 0 8,10.25 0.75,0.75 0 0 0 8.75,9.5 c 0,-0.6030454 0.1097627,-1.1732434 0.1972656,-1.75 z" id="shopping-basket_path1"/>
  </symbol>
</svg>